M48
METRIC,LZ,000.000
;FILE_FORMAT=3:3
;TYPE=PLATED
;Layer: PTH_Through
;EasyEDA v6.4.31, 2022-02-04 23:24:27
;1551f2279af443638085206af3fd0dcc,e8ed4560e5824e1ea3c46bb2bbde2574,10
;Gerber Generator version 0.2
;Holesize 1 = 0.310 mm
T01C0.310
;Holesize 2 = 0.701 mm
T02C0.701
;Holesize 3 = 0.901 mm
T03C0.901
;Holesize 4 = 0.915 mm
T04C0.915
;Holesize 5 = 1.000 mm
T05C1.000
;Holesize 6 = 1.016 mm
T06C1.016
;Holesize 7 = 1.118 mm
T07C1.118
;Holesize 8 = 1.403 mm
T08C1.403
;Holesize 9 = 2.540 mm
T09C2.540
%
G05
G90
T01
X052593Y-129057
X050724Y-121262
X050843Y-104648
X053033Y-104648
X083322Y-092875
X086606Y-102730
X057549Y-105336
X041280Y-125197
X060863Y-090355
X051793Y-133675
X065443Y-092875
X055961Y-093276
X064516Y-141000
X079822Y-141006
X105918Y-111745
X091648Y-111557
X102179Y-132362
X035075Y-139342
X043998Y-145232
X021671Y-108097
X033401Y-142456
X030940Y-128367
X054166Y-129639
X042441Y-101966
X049802Y-120338
X093358Y-121341
X052802Y-117643
X059306Y-119471
X067988Y-122776
X081183Y-136629
X060861Y-094104
X111559Y-101191
X030135Y-136949
X034775Y-135689
X029954Y-134752
X033449Y-122545
X031925Y-117566
X055209Y-129708
X028499Y-127307
X060891Y-132044
X029997Y-129418
X080193Y-128882
X079886Y-132842
X073975Y-120797
X065240Y-119908
X103660Y-123838
X018415Y-104452
X056622Y-120040
X019121Y-101938
X088786Y-105293
X042692Y-133584
X046294Y-145476
X043071Y-146235
X064816Y-136517
X106863Y-111077
X067267Y-096937
X054478Y-096937
X044633Y-126098
X033678Y-136370
X031087Y-134275
X032205Y-133383
X027889Y-129537
X030838Y-123795
X039289Y-119563
X032819Y-131069
X056073Y-130528
T02
X039624Y-115316
X039624Y-122936
X032004Y-122936
X032004Y-115316
T03
X015875Y-082550
X018415Y-082550
X020955Y-082550
X023495Y-082550
X015875Y-090170
X018415Y-090170
X020955Y-090170
X023495Y-090170
T04
X105664Y-083947
X105664Y-086487
X105664Y-089027
X108204Y-089027
X108204Y-086487
X108204Y-083947
X024635Y-126802
X024635Y-124262
X024635Y-121722
X024635Y-119182
X024635Y-116642
X024635Y-114102
X024635Y-111562
X024635Y-109022
T05
X091948Y-086780
X086947Y-091782
X089449Y-091782
X096949Y-091782
X094447Y-091782
X046228Y-137795
X046228Y-142875
X061341Y-137795
X061341Y-142875
X076454Y-137795
X076454Y-142875
X091567Y-137795
X091567Y-142875
X106680Y-137795
X106680Y-142875
X106680Y-125222
X106680Y-130302
T06
X037846Y-100838
X035306Y-100838
X032766Y-100838
X030226Y-100838
X027686Y-100838
X025146Y-100838
X022606Y-100838
X040386Y-100838
X042926Y-149098
X040386Y-149098
X037846Y-149098
X035306Y-149098
X032766Y-149098
X030226Y-149098
X027686Y-149098
X045466Y-149098
X060706Y-100838
X058166Y-100838
X055626Y-100838
X053086Y-100838
X050546Y-100838
X048006Y-100838
X045466Y-100838
X063246Y-100838
X065786Y-149098
X063246Y-149098
X060706Y-149098
X058166Y-149098
X055626Y-149098
X053086Y-149098
X050546Y-149098
X068326Y-149098
X087630Y-149098
X085090Y-149098
X082550Y-149098
X080010Y-149098
X077470Y-149098
X074930Y-149098
X072390Y-149098
X090170Y-149098
X017526Y-128778
X020066Y-128778
X017526Y-131318
X020066Y-131318
X017526Y-133858
X020066Y-133858
X017526Y-136398
X020066Y-136398
X017526Y-138938
X020066Y-138938
X017526Y-141478
X020066Y-141478
X017526Y-144018
X020066Y-144018
X017526Y-146558
X020066Y-146558
X017526Y-108458
X020066Y-108458
X017526Y-110998
X020066Y-110998
X017526Y-113538
X020066Y-113538
X017526Y-116078
X020066Y-116078
X017526Y-118618
X020066Y-118618
X017526Y-121158
X020066Y-121158
X017526Y-123698
X020066Y-123698
X017526Y-126238
X020066Y-126238
X020066Y-105918
X017526Y-105918
X020066Y-149098
X017526Y-149098
X081026Y-100838
X078486Y-100838
X075946Y-100838
X073406Y-100838
X070866Y-100838
X068326Y-100838
X092710Y-149098
X095250Y-149098
X086106Y-100838
X083566Y-100838
X050419Y-128778
X047879Y-128778
X050419Y-126238
X047879Y-126238
X050419Y-123698
X047879Y-123698
T07
X087376Y-114935
X087376Y-112395
X087376Y-109855
X072644Y-109855
X072644Y-114935
X108458Y-114935
X108458Y-112395
X108458Y-109855
X093726Y-109855
X093726Y-114935
T08
X041034Y-092761
X048527Y-092761
X033515Y-092761
X036055Y-095275
X046038Y-095275
X036055Y-082779
X046063Y-082779
T09
X079756Y-118085
X079756Y-106705
X100838Y-118085
X100838Y-106705
M30
