G04 Layer: BottomPasteMaskLayer*
G04 EasyEDA v6.4.31, 2022-02-04 23:24:27*
G04 1551f2279af443638085206af3fd0dcc,e8ed4560e5824e1ea3c46bb2bbde2574,10*
G04 Gerber Generator version 0.2*
G04 Scale: 100 percent, Rotated: No, Reflected: No *
G04 Dimensions in millimeters *
G04 leading zeros omitted , absolute positions ,4 integer and 5 decimal *
%FSLAX45Y45*%
%MOMM*%

%ADD30C,0.6000*%

%LPD*%
D30*
X5753100Y-12462819D02*
G01*
X5753100Y-12342820D01*
X5880100Y-12462819D02*
G01*
X5880100Y-12342820D01*
X6007100Y-12462819D02*
G01*
X6007100Y-12342820D01*
X6134100Y-12462819D02*
G01*
X6134100Y-12342820D01*
X6261100Y-12462819D02*
G01*
X6261100Y-12342820D01*
X6388100Y-12462819D02*
G01*
X6388100Y-12342820D01*
X6515100Y-12462819D02*
G01*
X6515100Y-12342820D01*
X6642100Y-12462819D02*
G01*
X6642100Y-12342820D01*
X5753100Y-13057179D02*
G01*
X5753100Y-12937180D01*
X5880100Y-13057179D02*
G01*
X5880100Y-12937180D01*
X6007100Y-13057179D02*
G01*
X6007100Y-12937180D01*
X6134100Y-13057179D02*
G01*
X6134100Y-12937180D01*
X6261100Y-13057179D02*
G01*
X6261100Y-12937180D01*
X6388100Y-13057179D02*
G01*
X6388100Y-12937180D01*
X6515100Y-13057179D02*
G01*
X6515100Y-12937180D01*
X6642100Y-13057179D02*
G01*
X6642100Y-12937180D01*
G36*
X2064600Y-9414400D02*
G01*
X1948599Y-9414400D01*
X1948599Y-9559399D01*
X2064600Y-9559399D01*
G37*
G36*
X1861400Y-9414400D02*
G01*
X1745399Y-9414400D01*
X1745399Y-9559399D01*
X1861400Y-9559399D01*
G37*
G36*
X6085601Y-9626998D02*
G01*
X6155603Y-9626998D01*
X6155603Y-9466999D01*
X6085601Y-9466999D01*
G37*
G36*
X6195603Y-9626998D02*
G01*
X6265605Y-9626998D01*
X6265605Y-9466999D01*
X6195603Y-9466999D01*
G37*
G36*
X6305603Y-9626998D02*
G01*
X6375605Y-9626998D01*
X6375605Y-9466999D01*
X6305603Y-9466999D01*
G37*
G36*
X6415603Y-9626998D02*
G01*
X6485605Y-9626998D01*
X6485605Y-9466999D01*
X6415603Y-9466999D01*
G37*
G36*
X6525602Y-9626998D02*
G01*
X6595605Y-9626998D01*
X6595605Y-9466999D01*
X6525602Y-9466999D01*
G37*
G36*
X6635602Y-9626998D02*
G01*
X6705605Y-9626998D01*
X6705605Y-9466999D01*
X6635602Y-9466999D01*
G37*
G36*
X6745602Y-9626998D02*
G01*
X6815604Y-9626998D01*
X6815604Y-9466999D01*
X6745602Y-9466999D01*
G37*
G36*
X6855602Y-9626998D02*
G01*
X6925604Y-9626998D01*
X6925604Y-9466999D01*
X6855602Y-9466999D01*
G37*
G36*
X5975598Y-9627001D02*
G01*
X6045601Y-9627001D01*
X6045601Y-9467001D01*
X5975598Y-9467001D01*
G37*
G36*
X5830600Y-9522005D02*
G01*
X5950600Y-9522005D01*
X5950600Y-9372003D01*
X5830600Y-9372003D01*
G37*
G36*
X5830600Y-8597003D02*
G01*
X5950600Y-8597003D01*
X5950600Y-8377003D01*
X5830600Y-8377003D01*
G37*
G36*
X7460597Y-8597000D02*
G01*
X7580596Y-8597000D01*
X7580596Y-8377001D01*
X7460597Y-8377001D01*
G37*
G36*
X7170595Y-9522005D02*
G01*
X7330594Y-9522005D01*
X7330594Y-9372003D01*
X7170595Y-9372003D01*
G37*
G36*
X3565397Y-13012928D02*
G01*
X3565397Y-13072871D01*
X3785361Y-13072871D01*
X3785361Y-13012928D01*
G37*
G36*
X3565397Y-13139928D02*
G01*
X3565397Y-13199871D01*
X3785361Y-13199871D01*
X3785361Y-13139928D01*
G37*
G36*
X3565397Y-13266928D02*
G01*
X3565397Y-13326871D01*
X3785361Y-13326871D01*
X3785361Y-13266928D01*
G37*
G36*
X3565397Y-13393928D02*
G01*
X3565397Y-13453871D01*
X3785361Y-13453871D01*
X3785361Y-13393928D01*
G37*
G36*
X3565397Y-13520928D02*
G01*
X3565397Y-13580871D01*
X3785361Y-13580871D01*
X3785361Y-13520928D01*
G37*
G36*
X3565397Y-13647928D02*
G01*
X3565397Y-13707871D01*
X3785361Y-13707871D01*
X3785361Y-13647928D01*
G37*
G36*
X3565397Y-13774928D02*
G01*
X3565397Y-13834871D01*
X3785361Y-13834871D01*
X3785361Y-13774928D01*
G37*
G36*
X3565397Y-13901928D02*
G01*
X3565397Y-13961871D01*
X3785361Y-13961871D01*
X3785361Y-13901928D01*
G37*
G36*
X3565397Y-14028928D02*
G01*
X3565397Y-14088871D01*
X3785361Y-14088871D01*
X3785361Y-14028928D01*
G37*
G36*
X3565397Y-14155928D02*
G01*
X3565397Y-14215871D01*
X3785361Y-14215871D01*
X3785361Y-14155928D01*
G37*
G36*
X3565397Y-14282928D02*
G01*
X3565397Y-14342871D01*
X3785361Y-14342871D01*
X3785361Y-14282928D01*
G37*
G36*
X3565397Y-14409928D02*
G01*
X3565397Y-14469871D01*
X3785361Y-14469871D01*
X3785361Y-14409928D01*
G37*
G36*
X2666238Y-14409928D02*
G01*
X2666238Y-14469871D01*
X2886202Y-14469871D01*
X2886202Y-14409928D01*
G37*
G36*
X2666238Y-14282928D02*
G01*
X2666238Y-14342871D01*
X2886202Y-14342871D01*
X2886202Y-14282928D01*
G37*
G36*
X2666238Y-14155928D02*
G01*
X2666238Y-14215871D01*
X2886202Y-14215871D01*
X2886202Y-14155928D01*
G37*
G36*
X2666238Y-14028928D02*
G01*
X2666238Y-14088871D01*
X2886202Y-14088871D01*
X2886202Y-14028928D01*
G37*
G36*
X2666238Y-13901928D02*
G01*
X2666238Y-13961871D01*
X2886202Y-13961871D01*
X2886202Y-13901928D01*
G37*
G36*
X2666238Y-13774928D02*
G01*
X2666238Y-13834871D01*
X2886202Y-13834871D01*
X2886202Y-13774928D01*
G37*
G36*
X2666238Y-13647928D02*
G01*
X2666238Y-13707871D01*
X2886202Y-13707871D01*
X2886202Y-13647928D01*
G37*
G36*
X2666238Y-13520928D02*
G01*
X2666238Y-13580871D01*
X2886202Y-13580871D01*
X2886202Y-13520928D01*
G37*
G36*
X2666238Y-13393928D02*
G01*
X2666238Y-13453871D01*
X2886202Y-13453871D01*
X2886202Y-13393928D01*
G37*
G36*
X2666238Y-13266928D02*
G01*
X2666238Y-13326871D01*
X2886202Y-13326871D01*
X2886202Y-13266928D01*
G37*
G36*
X2666238Y-13139928D02*
G01*
X2666238Y-13199871D01*
X2886202Y-13199871D01*
X2886202Y-13139928D01*
G37*
G36*
X2666238Y-13012928D02*
G01*
X2666238Y-13072871D01*
X2886202Y-13072871D01*
X2886202Y-13012928D01*
G37*
G36*
X5544820Y-10709910D02*
G01*
X5544820Y-10549889D01*
X5224779Y-10549889D01*
X5224779Y-10709910D01*
G37*
G36*
X5544820Y-11598910D02*
G01*
X5544820Y-11438889D01*
X5224779Y-11438889D01*
X5224779Y-11598910D01*
G37*
G36*
X6504299Y-10816099D02*
G01*
X6504299Y-10596100D01*
X6424300Y-10596100D01*
X6424300Y-10816099D01*
G37*
G36*
X6504299Y-11146299D02*
G01*
X6504299Y-10926300D01*
X6424300Y-10926300D01*
X6424300Y-11146299D01*
G37*
G36*
X8338311Y-12945237D02*
G01*
X8273288Y-12945237D01*
X8273288Y-13115162D01*
X8338311Y-13115162D01*
G37*
G36*
X8211311Y-12945237D02*
G01*
X8146288Y-12945237D01*
X8146288Y-13115162D01*
X8211311Y-13115162D01*
G37*
G36*
X8084311Y-12945237D02*
G01*
X8019288Y-12945237D01*
X8019288Y-13115162D01*
X8084311Y-13115162D01*
G37*
G36*
X7957311Y-12945237D02*
G01*
X7892288Y-12945237D01*
X7892288Y-13115162D01*
X7957311Y-13115162D01*
G37*
G36*
X7830311Y-12945237D02*
G01*
X7765288Y-12945237D01*
X7765288Y-13115162D01*
X7830311Y-13115162D01*
G37*
G36*
X7703311Y-12945237D02*
G01*
X7638288Y-12945237D01*
X7638288Y-13115162D01*
X7703311Y-13115162D01*
G37*
G36*
X7576311Y-12945237D02*
G01*
X7511288Y-12945237D01*
X7511288Y-13115162D01*
X7576311Y-13115162D01*
G37*
G36*
X7576311Y-12385420D02*
G01*
X7511288Y-12385420D01*
X7511288Y-12555346D01*
X7576311Y-12555346D01*
G37*
G36*
X7703311Y-12385420D02*
G01*
X7638288Y-12385420D01*
X7638288Y-12555346D01*
X7703311Y-12555346D01*
G37*
G36*
X7830311Y-12385420D02*
G01*
X7765288Y-12385420D01*
X7765288Y-12555346D01*
X7830311Y-12555346D01*
G37*
G36*
X7957311Y-12385420D02*
G01*
X7892288Y-12385420D01*
X7892288Y-12555346D01*
X7957311Y-12555346D01*
G37*
G36*
X8084311Y-12385420D02*
G01*
X8019288Y-12385420D01*
X8019288Y-12555346D01*
X8084311Y-12555346D01*
G37*
G36*
X8211311Y-12385420D02*
G01*
X8146288Y-12385420D01*
X8146288Y-12555346D01*
X8211311Y-12555346D01*
G37*
G36*
X8338311Y-12385420D02*
G01*
X8273288Y-12385420D01*
X8273288Y-12555346D01*
X8338311Y-12555346D01*
G37*
G36*
X2698600Y-9193400D02*
G01*
X2698600Y-9313400D01*
X2838599Y-9313400D01*
X2838599Y-9193400D01*
G37*
G36*
X2698600Y-9533399D02*
G01*
X2698600Y-9653399D01*
X2838599Y-9653399D01*
X2838599Y-9533399D01*
G37*
G36*
X2696100Y-8463699D02*
G01*
X2696100Y-8579700D01*
X2841099Y-8579700D01*
X2841099Y-8463699D01*
G37*
G36*
X2696100Y-8666899D02*
G01*
X2696100Y-8782900D01*
X2841099Y-8782900D01*
X2841099Y-8666899D01*
G37*
G36*
X2434699Y-15018600D02*
G01*
X2434699Y-14902599D01*
X2289700Y-14902599D01*
X2289700Y-15018600D01*
G37*
G36*
X2434699Y-14815400D02*
G01*
X2434699Y-14699399D01*
X2289700Y-14699399D01*
X2289700Y-14815400D01*
G37*
G36*
X5012799Y-14028000D02*
G01*
X5012799Y-13911999D01*
X4867800Y-13911999D01*
X4867800Y-14028000D01*
G37*
G36*
X5012799Y-13824800D02*
G01*
X5012799Y-13708799D01*
X4867800Y-13708799D01*
X4867800Y-13824800D01*
G37*
G36*
X6524099Y-14028000D02*
G01*
X6524099Y-13911999D01*
X6379100Y-13911999D01*
X6379100Y-14028000D01*
G37*
G36*
X6524099Y-13824800D02*
G01*
X6524099Y-13708799D01*
X6379100Y-13708799D01*
X6379100Y-13824800D01*
G37*
G36*
X8035399Y-14028000D02*
G01*
X8035399Y-13911999D01*
X7890400Y-13911999D01*
X7890400Y-14028000D01*
G37*
G36*
X8035399Y-13824800D02*
G01*
X8035399Y-13708799D01*
X7890400Y-13708799D01*
X7890400Y-13824800D01*
G37*
G36*
X9546699Y-14028000D02*
G01*
X9546699Y-13911999D01*
X9401700Y-13911999D01*
X9401700Y-14028000D01*
G37*
G36*
X9546699Y-13824800D02*
G01*
X9546699Y-13708799D01*
X9401700Y-13708799D01*
X9401700Y-13824800D01*
G37*
G36*
X10422999Y-14028000D02*
G01*
X10422999Y-13911999D01*
X10278000Y-13911999D01*
X10278000Y-14028000D01*
G37*
G36*
X10422999Y-13824800D02*
G01*
X10422999Y-13708799D01*
X10278000Y-13708799D01*
X10278000Y-13824800D01*
G37*
G36*
X10422999Y-12770700D02*
G01*
X10422999Y-12654699D01*
X10278000Y-12654699D01*
X10278000Y-12770700D01*
G37*
G36*
X10422999Y-12567500D02*
G01*
X10422999Y-12451499D01*
X10278000Y-12451499D01*
X10278000Y-12567500D01*
G37*
G36*
X7525600Y-10493900D02*
G01*
X7409599Y-10493900D01*
X7409599Y-10638899D01*
X7525600Y-10638899D01*
G37*
G36*
X7322400Y-10493900D02*
G01*
X7206399Y-10493900D01*
X7206399Y-10638899D01*
X7322400Y-10638899D01*
G37*
G36*
X8425599Y-10638899D02*
G01*
X8541600Y-10638899D01*
X8541600Y-10493900D01*
X8425599Y-10493900D01*
G37*
G36*
X8628799Y-10638899D02*
G01*
X8744800Y-10638899D01*
X8744800Y-10493900D01*
X8628799Y-10493900D01*
G37*
G36*
X8425599Y-11972399D02*
G01*
X8541600Y-11972399D01*
X8541600Y-11827400D01*
X8425599Y-11827400D01*
G37*
G36*
X8628799Y-11972399D02*
G01*
X8744800Y-11972399D01*
X8744800Y-11827400D01*
X8628799Y-11827400D01*
G37*
G36*
X9327299Y-10638899D02*
G01*
X9443300Y-10638899D01*
X9443300Y-10493900D01*
X9327299Y-10493900D01*
G37*
G36*
X9530499Y-10638899D02*
G01*
X9646500Y-10638899D01*
X9646500Y-10493900D01*
X9530499Y-10493900D01*
G37*
G36*
X10533799Y-10638899D02*
G01*
X10649800Y-10638899D01*
X10649800Y-10493900D01*
X10533799Y-10493900D01*
G37*
G36*
X10736999Y-10638899D02*
G01*
X10853000Y-10638899D01*
X10853000Y-10493900D01*
X10736999Y-10493900D01*
G37*
G36*
X10533799Y-11972399D02*
G01*
X10649800Y-11972399D01*
X10649800Y-11827400D01*
X10533799Y-11827400D01*
G37*
G36*
X10736999Y-11972399D02*
G01*
X10853000Y-11972399D01*
X10853000Y-11827400D01*
X10736999Y-11827400D01*
G37*
G36*
X10920100Y-9567400D02*
G01*
X10920100Y-9787399D01*
X11000099Y-9787399D01*
X11000099Y-9567400D01*
G37*
G36*
X10920100Y-9237200D02*
G01*
X10920100Y-9457199D01*
X11000099Y-9457199D01*
X11000099Y-9237200D01*
G37*
G36*
X10285100Y-9567400D02*
G01*
X10285100Y-9787399D01*
X10365099Y-9787399D01*
X10365099Y-9567400D01*
G37*
G36*
X10285100Y-9237200D02*
G01*
X10285100Y-9457199D01*
X10365099Y-9457199D01*
X10365099Y-9237200D01*
G37*
G36*
X8977000Y-12831300D02*
G01*
X8977000Y-13051299D01*
X9056999Y-13051299D01*
X9056999Y-12831300D01*
G37*
G36*
X8977000Y-12501100D02*
G01*
X8977000Y-12721099D01*
X9056999Y-12721099D01*
X9056999Y-12501100D01*
G37*
G36*
X6076099Y-11972399D02*
G01*
X6192100Y-11972399D01*
X6192100Y-11827400D01*
X6076099Y-11827400D01*
G37*
G36*
X6279299Y-11972399D02*
G01*
X6395300Y-11972399D01*
X6395300Y-11827400D01*
X6279299Y-11827400D01*
G37*
G36*
X6520599Y-13458299D02*
G01*
X6636600Y-13458299D01*
X6636600Y-13313300D01*
X6520599Y-13313300D01*
G37*
G36*
X6723799Y-13458299D02*
G01*
X6839800Y-13458299D01*
X6839800Y-13313300D01*
X6723799Y-13313300D01*
G37*
G36*
X4287100Y-14367400D02*
G01*
X4171099Y-14367400D01*
X4171099Y-14512399D01*
X4287100Y-14512399D01*
G37*
G36*
X4083900Y-14367400D02*
G01*
X3967899Y-14367400D01*
X3967899Y-14512399D01*
X4083900Y-14512399D01*
G37*
G36*
X7191900Y-12591199D02*
G01*
X7191900Y-12707200D01*
X7336899Y-12707200D01*
X7336899Y-12591199D01*
G37*
G36*
X7191900Y-12794399D02*
G01*
X7191900Y-12910400D01*
X7336899Y-12910400D01*
X7336899Y-12794399D01*
G37*
G36*
X7309700Y-11827400D02*
G01*
X7193699Y-11827400D01*
X7193699Y-11972399D01*
X7309700Y-11972399D01*
G37*
G36*
X7106500Y-11827400D02*
G01*
X6990499Y-11827400D01*
X6990499Y-11972399D01*
X7106500Y-11972399D01*
G37*
G36*
X8657699Y-12910400D02*
G01*
X8657699Y-12794399D01*
X8512700Y-12794399D01*
X8512700Y-12910400D01*
G37*
G36*
X8657699Y-12707200D02*
G01*
X8657699Y-12591199D01*
X8512700Y-12591199D01*
X8512700Y-12707200D01*
G37*
G36*
X8224100Y-13364100D02*
G01*
X8108099Y-13364100D01*
X8108099Y-13509099D01*
X8224100Y-13509099D01*
G37*
G36*
X8020900Y-13364100D02*
G01*
X7904899Y-13364100D01*
X7904899Y-13509099D01*
X8020900Y-13509099D01*
G37*
G36*
X8236800Y-8131700D02*
G01*
X8120799Y-8131700D01*
X8120799Y-8276699D01*
X8236800Y-8276699D01*
G37*
G36*
X8033600Y-8131700D02*
G01*
X7917599Y-8131700D01*
X7917599Y-8276699D01*
X8033600Y-8276699D01*
G37*
G36*
X8236800Y-8741300D02*
G01*
X8120799Y-8741300D01*
X8120799Y-8886299D01*
X8236800Y-8886299D01*
G37*
G36*
X8033600Y-8741300D02*
G01*
X7917599Y-8741300D01*
X7917599Y-8886299D01*
X8033600Y-8886299D01*
G37*
G36*
X7917599Y-9241899D02*
G01*
X8033600Y-9241899D01*
X8033600Y-9096900D01*
X7917599Y-9096900D01*
G37*
G36*
X8120799Y-9241899D02*
G01*
X8236800Y-9241899D01*
X8236800Y-9096900D01*
X8120799Y-9096900D01*
G37*
G36*
X5658700Y-8131700D02*
G01*
X5542699Y-8131700D01*
X5542699Y-8276699D01*
X5658700Y-8276699D01*
G37*
G36*
X5455500Y-8131700D02*
G01*
X5339499Y-8131700D01*
X5339499Y-8276699D01*
X5455500Y-8276699D01*
G37*
G36*
X5339499Y-9000599D02*
G01*
X5455500Y-9000599D01*
X5455500Y-8855600D01*
X5339499Y-8855600D01*
G37*
G36*
X5542699Y-9000599D02*
G01*
X5658700Y-9000599D01*
X5658700Y-8855600D01*
X5542699Y-8855600D01*
G37*
G36*
X5363100Y-9301899D02*
G01*
X5363100Y-9417900D01*
X5508099Y-9417900D01*
X5508099Y-9301899D01*
G37*
G36*
X5363100Y-9505099D02*
G01*
X5363100Y-9621100D01*
X5508099Y-9621100D01*
X5508099Y-9505099D01*
G37*
G36*
X7917599Y-9648299D02*
G01*
X8033600Y-9648299D01*
X8033600Y-9503300D01*
X7917599Y-9503300D01*
G37*
G36*
X8120799Y-9648299D02*
G01*
X8236800Y-9648299D01*
X8236800Y-9503300D01*
X8120799Y-9503300D01*
G37*
M02*
