G04 Layer: BottomSolderMaskLayer*
G04 EasyEDA v6.4.31, 2022-02-04 23:24:27*
G04 1551f2279af443638085206af3fd0dcc,e8ed4560e5824e1ea3c46bb2bbde2574,10*
G04 Gerber Generator version 0.2*
G04 Scale: 100 percent, Rotated: No, Reflected: No *
G04 Dimensions in millimeters *
G04 leading zeros omitted , absolute positions ,4 integer and 5 decimal *
%FSLAX45Y45*%
%MOMM*%

%ADD49C,2.0032*%
%ADD50C,2.4892*%
%ADD52C,1.7032*%
%ADD53C,1.7272*%
%ADD54C,1.9533*%
%ADD55C,1.4031*%
%ADD57C,2.2032*%
%ADD58C,2.0828*%
%ADD60C,1.6180*%
%ADD61C,2.2352*%
%ADD62C,3.3528*%
%ADD65C,0.8032*%
%ADD70R,2.4028X0.8026*%

%LPD*%
D65*
X5753100Y-12462819D02*
G01*
X5753100Y-12342820D01*
X5880100Y-12462819D02*
G01*
X5880100Y-12342820D01*
X6007100Y-12462819D02*
G01*
X6007100Y-12342820D01*
X6134100Y-12462819D02*
G01*
X6134100Y-12342820D01*
X6261100Y-12462819D02*
G01*
X6261100Y-12342820D01*
X6388100Y-12462819D02*
G01*
X6388100Y-12342820D01*
X6515100Y-12462819D02*
G01*
X6515100Y-12342820D01*
X6642100Y-12462819D02*
G01*
X6642100Y-12342820D01*
X5753100Y-13057179D02*
G01*
X5753100Y-12937180D01*
X5880100Y-13057179D02*
G01*
X5880100Y-12937180D01*
X6007100Y-13057179D02*
G01*
X6007100Y-12937180D01*
X6134100Y-13057179D02*
G01*
X6134100Y-12937180D01*
X6261100Y-13057179D02*
G01*
X6261100Y-12937180D01*
X6388100Y-13057179D02*
G01*
X6388100Y-12937180D01*
X6515100Y-13057179D02*
G01*
X6515100Y-12937180D01*
X6642100Y-13057179D02*
G01*
X6642100Y-12937180D01*
D49*
X4622800Y-13759500D02*
G01*
X4622800Y-13799499D01*
X4622800Y-14267500D02*
G01*
X4622800Y-14307499D01*
X6134100Y-13759500D02*
G01*
X6134100Y-13799499D01*
X6134100Y-14267500D02*
G01*
X6134100Y-14307499D01*
X7645400Y-13759500D02*
G01*
X7645400Y-13799499D01*
X7645400Y-14267500D02*
G01*
X7645400Y-14307499D01*
X9156700Y-13759500D02*
G01*
X9156700Y-13799499D01*
X9156700Y-14267500D02*
G01*
X9156700Y-14307499D01*
X10668000Y-13759500D02*
G01*
X10668000Y-13799499D01*
X10668000Y-14267500D02*
G01*
X10668000Y-14307499D01*
X10668000Y-12502200D02*
G01*
X10668000Y-12542199D01*
X10668000Y-13010200D02*
G01*
X10668000Y-13050199D01*
G36*
X1938528Y-9569450D02*
G01*
X1938528Y-9404350D01*
X2074671Y-9404350D01*
X2074671Y-9569450D01*
G37*
G36*
X1735328Y-9569450D02*
G01*
X1735328Y-9404350D01*
X1871471Y-9404350D01*
X1871471Y-9569450D01*
G37*
D50*
G01*
X4103370Y-9276079D03*
G01*
X4852670Y-9276079D03*
G01*
X3351529Y-9276079D03*
G01*
X3605529Y-9527539D03*
G01*
X4603750Y-9527539D03*
G01*
X3605529Y-8277860D03*
G01*
X4606290Y-8277860D03*
G36*
X1502410Y-8340089D02*
G01*
X1502410Y-8169910D01*
X1672589Y-8169910D01*
X1672589Y-8340089D01*
G37*
D52*
G01*
X1841500Y-8255000D03*
G01*
X2095500Y-8255000D03*
G01*
X2349500Y-8255000D03*
G01*
X1587500Y-9017000D03*
G01*
X1841500Y-9017000D03*
G01*
X2095500Y-9017000D03*
G01*
X2349500Y-9017000D03*
D53*
G01*
X10566400Y-8394700D03*
G01*
X10566400Y-8648700D03*
G01*
X10566400Y-8902700D03*
G01*
X10820400Y-8902700D03*
G01*
X10820400Y-8648700D03*
G01*
X10820400Y-8394700D03*
D54*
G01*
X9194800Y-8678037D03*
G01*
X8694674Y-9178162D03*
G01*
X8944863Y-9178162D03*
G01*
X9694925Y-9178162D03*
G01*
X9444736Y-9178162D03*
G36*
X6075425Y-9637268D02*
G01*
X6075425Y-9456928D01*
X6165850Y-9456928D01*
X6165850Y-9637268D01*
G37*
G36*
X6185408Y-9637268D02*
G01*
X6185408Y-9456928D01*
X6275831Y-9456928D01*
X6275831Y-9637268D01*
G37*
G36*
X6295390Y-9637268D02*
G01*
X6295390Y-9456928D01*
X6385813Y-9456928D01*
X6385813Y-9637268D01*
G37*
G36*
X6405372Y-9637268D02*
G01*
X6405372Y-9456928D01*
X6495795Y-9456928D01*
X6495795Y-9637268D01*
G37*
G36*
X6515354Y-9637268D02*
G01*
X6515354Y-9456928D01*
X6605777Y-9456928D01*
X6605777Y-9637268D01*
G37*
G36*
X6625336Y-9637268D02*
G01*
X6625336Y-9456928D01*
X6715759Y-9456928D01*
X6715759Y-9637268D01*
G37*
G36*
X6735318Y-9637268D02*
G01*
X6735318Y-9456928D01*
X6825741Y-9456928D01*
X6825741Y-9637268D01*
G37*
G36*
X6845554Y-9637268D02*
G01*
X6845554Y-9456928D01*
X6935724Y-9456928D01*
X6935724Y-9637268D01*
G37*
G36*
X5965443Y-9637268D02*
G01*
X5965443Y-9456928D01*
X6055868Y-9456928D01*
X6055868Y-9637268D01*
G37*
G36*
X5820409Y-9532112D02*
G01*
X5820409Y-9361931D01*
X5960872Y-9361931D01*
X5960872Y-9532112D01*
G37*
G36*
X5820409Y-8607044D02*
G01*
X5820409Y-8366760D01*
X5960872Y-8366760D01*
X5960872Y-8607044D01*
G37*
G36*
X7450327Y-8607044D02*
G01*
X7450327Y-8366760D01*
X7590790Y-8366760D01*
X7590790Y-8607044D01*
G37*
G36*
X7160513Y-9532112D02*
G01*
X7160513Y-9361931D01*
X7340854Y-9361931D01*
X7340854Y-9532112D01*
G37*
D70*
G01*
X3675379Y-13042900D03*
G01*
X3675379Y-13169900D03*
G01*
X3675379Y-13296900D03*
G01*
X3675379Y-13423900D03*
G01*
X3675379Y-13550900D03*
G01*
X3675379Y-13677900D03*
G01*
X3675379Y-13804900D03*
G01*
X3675379Y-13931900D03*
G01*
X3675379Y-14058900D03*
G01*
X3675379Y-14185900D03*
G01*
X3675379Y-14312900D03*
G01*
X3675379Y-14439900D03*
G01*
X2776220Y-14439900D03*
G01*
X2776220Y-14312900D03*
G01*
X2776220Y-14185900D03*
G01*
X2776220Y-14058900D03*
G01*
X2776220Y-13931900D03*
G01*
X2776220Y-13804900D03*
G01*
X2776220Y-13677900D03*
G01*
X2776220Y-13550900D03*
G01*
X2776220Y-13423900D03*
G01*
X2776220Y-13296900D03*
G01*
X2776220Y-13169900D03*
G01*
X2776220Y-13042900D03*
D55*
G01*
X3962400Y-11531600D03*
G01*
X3962400Y-12293600D03*
G01*
X3200400Y-12293600D03*
G01*
X3200400Y-11531600D03*
G36*
X5214620Y-10720070D02*
G01*
X5214620Y-10539729D01*
X5554979Y-10539729D01*
X5554979Y-10720070D01*
G37*
G36*
X5214620Y-11609070D02*
G01*
X5214620Y-11428729D01*
X5554979Y-11428729D01*
X5554979Y-11609070D01*
G37*
G36*
X6414261Y-10826242D02*
G01*
X6414261Y-10585958D01*
X6514338Y-10585958D01*
X6514338Y-10826242D01*
G37*
G36*
X6414261Y-11156442D02*
G01*
X6414261Y-10916158D01*
X6514338Y-10916158D01*
X6514338Y-11156442D01*
G37*
G36*
X8263127Y-13125450D02*
G01*
X8263127Y-12935204D01*
X8348472Y-12935204D01*
X8348472Y-13125450D01*
G37*
G36*
X8136127Y-13125450D02*
G01*
X8136127Y-12935204D01*
X8221472Y-12935204D01*
X8221472Y-13125450D01*
G37*
G36*
X8009127Y-13125450D02*
G01*
X8009127Y-12935204D01*
X8094472Y-12935204D01*
X8094472Y-13125450D01*
G37*
G36*
X7882127Y-13125450D02*
G01*
X7882127Y-12935204D01*
X7967472Y-12935204D01*
X7967472Y-13125450D01*
G37*
G36*
X7755127Y-13125450D02*
G01*
X7755127Y-12935204D01*
X7840472Y-12935204D01*
X7840472Y-13125450D01*
G37*
G36*
X7628127Y-13125450D02*
G01*
X7628127Y-12935204D01*
X7713472Y-12935204D01*
X7713472Y-13125450D01*
G37*
G36*
X7501127Y-13125450D02*
G01*
X7501127Y-12935204D01*
X7586472Y-12935204D01*
X7586472Y-13125450D01*
G37*
G36*
X7501127Y-12565634D02*
G01*
X7501127Y-12375387D01*
X7586472Y-12375387D01*
X7586472Y-12565634D01*
G37*
G36*
X7628127Y-12565634D02*
G01*
X7628127Y-12375387D01*
X7713472Y-12375387D01*
X7713472Y-12565634D01*
G37*
G36*
X7755127Y-12565634D02*
G01*
X7755127Y-12375387D01*
X7840472Y-12375387D01*
X7840472Y-12565634D01*
G37*
G36*
X7882127Y-12565634D02*
G01*
X7882127Y-12375387D01*
X7967472Y-12375387D01*
X7967472Y-12565634D01*
G37*
G36*
X8009127Y-12565634D02*
G01*
X8009127Y-12375387D01*
X8094472Y-12375387D01*
X8094472Y-12565634D01*
G37*
G36*
X8136127Y-12565634D02*
G01*
X8136127Y-12375387D01*
X8221472Y-12375387D01*
X8221472Y-12565634D01*
G37*
G36*
X8263127Y-12565634D02*
G01*
X8263127Y-12375387D01*
X8348472Y-12375387D01*
X8348472Y-12565634D01*
G37*
G36*
X2688336Y-9323578D02*
G01*
X2688336Y-9183115D01*
X2848863Y-9183115D01*
X2848863Y-9323578D01*
G37*
G36*
X2688336Y-9663684D02*
G01*
X2688336Y-9523221D01*
X2848863Y-9523221D01*
X2848863Y-9663684D01*
G37*
G36*
X2686050Y-8589771D02*
G01*
X2686050Y-8453628D01*
X2851150Y-8453628D01*
X2851150Y-8589771D01*
G37*
G36*
X2686050Y-8792971D02*
G01*
X2686050Y-8656828D01*
X2851150Y-8656828D01*
X2851150Y-8792971D01*
G37*
G36*
X2279650Y-15028671D02*
G01*
X2279650Y-14892528D01*
X2444750Y-14892528D01*
X2444750Y-15028671D01*
G37*
G36*
X2279650Y-14825471D02*
G01*
X2279650Y-14689328D01*
X2444750Y-14689328D01*
X2444750Y-14825471D01*
G37*
G36*
X4857750Y-14038071D02*
G01*
X4857750Y-13901928D01*
X5022850Y-13901928D01*
X5022850Y-14038071D01*
G37*
G36*
X4857750Y-13834871D02*
G01*
X4857750Y-13698728D01*
X5022850Y-13698728D01*
X5022850Y-13834871D01*
G37*
G36*
X6369050Y-14038071D02*
G01*
X6369050Y-13901928D01*
X6534150Y-13901928D01*
X6534150Y-14038071D01*
G37*
G36*
X6369050Y-13834871D02*
G01*
X6369050Y-13698728D01*
X6534150Y-13698728D01*
X6534150Y-13834871D01*
G37*
G36*
X7880350Y-14038071D02*
G01*
X7880350Y-13901928D01*
X8045450Y-13901928D01*
X8045450Y-14038071D01*
G37*
G36*
X7880350Y-13834871D02*
G01*
X7880350Y-13698728D01*
X8045450Y-13698728D01*
X8045450Y-13834871D01*
G37*
G36*
X9391650Y-14038071D02*
G01*
X9391650Y-13901928D01*
X9556750Y-13901928D01*
X9556750Y-14038071D01*
G37*
G36*
X9391650Y-13834871D02*
G01*
X9391650Y-13698728D01*
X9556750Y-13698728D01*
X9556750Y-13834871D01*
G37*
G36*
X10267950Y-14038071D02*
G01*
X10267950Y-13901928D01*
X10433050Y-13901928D01*
X10433050Y-14038071D01*
G37*
G36*
X10267950Y-13834871D02*
G01*
X10267950Y-13698728D01*
X10433050Y-13698728D01*
X10433050Y-13834871D01*
G37*
G36*
X10267950Y-12780771D02*
G01*
X10267950Y-12644628D01*
X10433050Y-12644628D01*
X10433050Y-12780771D01*
G37*
G36*
X10267950Y-12577571D02*
G01*
X10267950Y-12441428D01*
X10433050Y-12441428D01*
X10433050Y-12577571D01*
G37*
G36*
X7399527Y-10648950D02*
G01*
X7399527Y-10483850D01*
X7535672Y-10483850D01*
X7535672Y-10648950D01*
G37*
G36*
X7196327Y-10648950D02*
G01*
X7196327Y-10483850D01*
X7332472Y-10483850D01*
X7332472Y-10648950D01*
G37*
G36*
X8415527Y-10648950D02*
G01*
X8415527Y-10483850D01*
X8551672Y-10483850D01*
X8551672Y-10648950D01*
G37*
G36*
X8618727Y-10648950D02*
G01*
X8618727Y-10483850D01*
X8754872Y-10483850D01*
X8754872Y-10648950D01*
G37*
G36*
X8415527Y-11982450D02*
G01*
X8415527Y-11817350D01*
X8551672Y-11817350D01*
X8551672Y-11982450D01*
G37*
G36*
X8618727Y-11982450D02*
G01*
X8618727Y-11817350D01*
X8754872Y-11817350D01*
X8754872Y-11982450D01*
G37*
G36*
X9317227Y-10648950D02*
G01*
X9317227Y-10483850D01*
X9453372Y-10483850D01*
X9453372Y-10648950D01*
G37*
G36*
X9520427Y-10648950D02*
G01*
X9520427Y-10483850D01*
X9656572Y-10483850D01*
X9656572Y-10648950D01*
G37*
G36*
X10523727Y-10648950D02*
G01*
X10523727Y-10483850D01*
X10659872Y-10483850D01*
X10659872Y-10648950D01*
G37*
G36*
X10726927Y-10648950D02*
G01*
X10726927Y-10483850D01*
X10863072Y-10483850D01*
X10863072Y-10648950D01*
G37*
G36*
X10523727Y-11982450D02*
G01*
X10523727Y-11817350D01*
X10659872Y-11817350D01*
X10659872Y-11982450D01*
G37*
G36*
X10726927Y-11982450D02*
G01*
X10726927Y-11817350D01*
X10863072Y-11817350D01*
X10863072Y-11982450D01*
G37*
G36*
X10910061Y-9797542D02*
G01*
X10910061Y-9557258D01*
X11010138Y-9557258D01*
X11010138Y-9797542D01*
G37*
G36*
X10910061Y-9467342D02*
G01*
X10910061Y-9227058D01*
X11010138Y-9227058D01*
X11010138Y-9467342D01*
G37*
G36*
X10275061Y-9797542D02*
G01*
X10275061Y-9557258D01*
X10375138Y-9557258D01*
X10375138Y-9797542D01*
G37*
G36*
X10275061Y-9467342D02*
G01*
X10275061Y-9227058D01*
X10375138Y-9227058D01*
X10375138Y-9467342D01*
G37*
G36*
X8966961Y-13061442D02*
G01*
X8966961Y-12821158D01*
X9067038Y-12821158D01*
X9067038Y-13061442D01*
G37*
G36*
X8966961Y-12731242D02*
G01*
X8966961Y-12490958D01*
X9067038Y-12490958D01*
X9067038Y-12731242D01*
G37*
G36*
X6066027Y-11982450D02*
G01*
X6066027Y-11817350D01*
X6202172Y-11817350D01*
X6202172Y-11982450D01*
G37*
G36*
X6269227Y-11982450D02*
G01*
X6269227Y-11817350D01*
X6405372Y-11817350D01*
X6405372Y-11982450D01*
G37*
G36*
X6510527Y-13468350D02*
G01*
X6510527Y-13303250D01*
X6646672Y-13303250D01*
X6646672Y-13468350D01*
G37*
G36*
X6713727Y-13468350D02*
G01*
X6713727Y-13303250D01*
X6849872Y-13303250D01*
X6849872Y-13468350D01*
G37*
G36*
X4161027Y-14522450D02*
G01*
X4161027Y-14357350D01*
X4297172Y-14357350D01*
X4297172Y-14522450D01*
G37*
G36*
X3957827Y-14522450D02*
G01*
X3957827Y-14357350D01*
X4093972Y-14357350D01*
X4093972Y-14522450D01*
G37*
G36*
X7181850Y-12717271D02*
G01*
X7181850Y-12581128D01*
X7346950Y-12581128D01*
X7346950Y-12717271D01*
G37*
G36*
X7181850Y-12920471D02*
G01*
X7181850Y-12784328D01*
X7346950Y-12784328D01*
X7346950Y-12920471D01*
G37*
G36*
X7183627Y-11982450D02*
G01*
X7183627Y-11817350D01*
X7319772Y-11817350D01*
X7319772Y-11982450D01*
G37*
G36*
X6980427Y-11982450D02*
G01*
X6980427Y-11817350D01*
X7116572Y-11817350D01*
X7116572Y-11982450D01*
G37*
G36*
X8502650Y-12920471D02*
G01*
X8502650Y-12784328D01*
X8667750Y-12784328D01*
X8667750Y-12920471D01*
G37*
G36*
X8502650Y-12717271D02*
G01*
X8502650Y-12581128D01*
X8667750Y-12581128D01*
X8667750Y-12717271D01*
G37*
G36*
X8098027Y-13519150D02*
G01*
X8098027Y-13354050D01*
X8234172Y-13354050D01*
X8234172Y-13519150D01*
G37*
G36*
X7894827Y-13519150D02*
G01*
X7894827Y-13354050D01*
X8030972Y-13354050D01*
X8030972Y-13519150D01*
G37*
G36*
X8110727Y-8286750D02*
G01*
X8110727Y-8121650D01*
X8246872Y-8121650D01*
X8246872Y-8286750D01*
G37*
G36*
X7907527Y-8286750D02*
G01*
X7907527Y-8121650D01*
X8043672Y-8121650D01*
X8043672Y-8286750D01*
G37*
G36*
X8110727Y-8896350D02*
G01*
X8110727Y-8731250D01*
X8246872Y-8731250D01*
X8246872Y-8896350D01*
G37*
G36*
X7907527Y-8896350D02*
G01*
X7907527Y-8731250D01*
X8043672Y-8731250D01*
X8043672Y-8896350D01*
G37*
G36*
X7907527Y-9251950D02*
G01*
X7907527Y-9086850D01*
X8043672Y-9086850D01*
X8043672Y-9251950D01*
G37*
G36*
X8110727Y-9251950D02*
G01*
X8110727Y-9086850D01*
X8246872Y-9086850D01*
X8246872Y-9251950D01*
G37*
G36*
X5532627Y-8286750D02*
G01*
X5532627Y-8121650D01*
X5668772Y-8121650D01*
X5668772Y-8286750D01*
G37*
G36*
X5329427Y-8286750D02*
G01*
X5329427Y-8121650D01*
X5465572Y-8121650D01*
X5465572Y-8286750D01*
G37*
G36*
X5329427Y-9010650D02*
G01*
X5329427Y-8845550D01*
X5465572Y-8845550D01*
X5465572Y-9010650D01*
G37*
G36*
X5532627Y-9010650D02*
G01*
X5532627Y-8845550D01*
X5668772Y-8845550D01*
X5668772Y-9010650D01*
G37*
G36*
X5353050Y-9427971D02*
G01*
X5353050Y-9291828D01*
X5518150Y-9291828D01*
X5518150Y-9427971D01*
G37*
G36*
X5353050Y-9631171D02*
G01*
X5353050Y-9495028D01*
X5518150Y-9495028D01*
X5518150Y-9631171D01*
G37*
G36*
X7907527Y-9658350D02*
G01*
X7907527Y-9493250D01*
X8043672Y-9493250D01*
X8043672Y-9658350D01*
G37*
G36*
X8110727Y-9658350D02*
G01*
X8110727Y-9493250D01*
X8246872Y-9493250D01*
X8246872Y-9658350D01*
G37*
G36*
X2353310Y-12790424D02*
G01*
X2353310Y-12569952D01*
X2573781Y-12569952D01*
X2573781Y-12790424D01*
G37*
D57*
G01*
X2463545Y-12426187D03*
G01*
X2463545Y-12172187D03*
G01*
X2463545Y-11918187D03*
G01*
X2463545Y-11664187D03*
G01*
X2463545Y-11410187D03*
G01*
X2463545Y-11156187D03*
G01*
X2463545Y-10902187D03*
D58*
G01*
X3784600Y-10083800D03*
G01*
X3530600Y-10083800D03*
G01*
X3276600Y-10083800D03*
G01*
X3022600Y-10083800D03*
G01*
X2768600Y-10083800D03*
G01*
X2514600Y-10083800D03*
G01*
X2260600Y-10083800D03*
G01*
X4038600Y-10083800D03*
G01*
X4292600Y-14909800D03*
G01*
X4038600Y-14909800D03*
G01*
X3784600Y-14909800D03*
G01*
X3530600Y-14909800D03*
G01*
X3276600Y-14909800D03*
G01*
X3022600Y-14909800D03*
G01*
X2768600Y-14909800D03*
G01*
X4546600Y-14909800D03*
G01*
X6070600Y-10083800D03*
G01*
X5816600Y-10083800D03*
G01*
X5562600Y-10083800D03*
G01*
X5308600Y-10083800D03*
G01*
X5054600Y-10083800D03*
G01*
X4800600Y-10083800D03*
G01*
X4546600Y-10083800D03*
G01*
X6324600Y-10083800D03*
G01*
X6578600Y-14909800D03*
G01*
X6324600Y-14909800D03*
G01*
X6070600Y-14909800D03*
G01*
X5816600Y-14909800D03*
G01*
X5562600Y-14909800D03*
G01*
X5308600Y-14909800D03*
G01*
X5054600Y-14909800D03*
G01*
X6832600Y-14909800D03*
G01*
X8763000Y-14909800D03*
G01*
X8509000Y-14909800D03*
G01*
X8255000Y-14909800D03*
G01*
X8001000Y-14909800D03*
G01*
X7747000Y-14909800D03*
G01*
X7493000Y-14909800D03*
G01*
X7239000Y-14909800D03*
G01*
X9017000Y-14909800D03*
G36*
X1648460Y-12981939D02*
G01*
X1648460Y-12773660D01*
X1856739Y-12773660D01*
X1856739Y-12981939D01*
G37*
G36*
X1902460Y-12981939D02*
G01*
X1902460Y-12773660D01*
X2110739Y-12773660D01*
X2110739Y-12981939D01*
G37*
G36*
X1648460Y-13235939D02*
G01*
X1648460Y-13027660D01*
X1856739Y-13027660D01*
X1856739Y-13235939D01*
G37*
G36*
X1902460Y-13235939D02*
G01*
X1902460Y-13027660D01*
X2110739Y-13027660D01*
X2110739Y-13235939D01*
G37*
G36*
X1648460Y-13489939D02*
G01*
X1648460Y-13281660D01*
X1856739Y-13281660D01*
X1856739Y-13489939D01*
G37*
G36*
X1902460Y-13489939D02*
G01*
X1902460Y-13281660D01*
X2110739Y-13281660D01*
X2110739Y-13489939D01*
G37*
G36*
X1648460Y-13743939D02*
G01*
X1648460Y-13535660D01*
X1856739Y-13535660D01*
X1856739Y-13743939D01*
G37*
G36*
X1902460Y-13743939D02*
G01*
X1902460Y-13535660D01*
X2110739Y-13535660D01*
X2110739Y-13743939D01*
G37*
G36*
X1648460Y-13997939D02*
G01*
X1648460Y-13789660D01*
X1856739Y-13789660D01*
X1856739Y-13997939D01*
G37*
G36*
X1902460Y-13997939D02*
G01*
X1902460Y-13789660D01*
X2110739Y-13789660D01*
X2110739Y-13997939D01*
G37*
G36*
X1648460Y-14251939D02*
G01*
X1648460Y-14043660D01*
X1856739Y-14043660D01*
X1856739Y-14251939D01*
G37*
G36*
X1902460Y-14251939D02*
G01*
X1902460Y-14043660D01*
X2110739Y-14043660D01*
X2110739Y-14251939D01*
G37*
G36*
X1648460Y-14505939D02*
G01*
X1648460Y-14297660D01*
X1856739Y-14297660D01*
X1856739Y-14505939D01*
G37*
G36*
X1902460Y-14505939D02*
G01*
X1902460Y-14297660D01*
X2110739Y-14297660D01*
X2110739Y-14505939D01*
G37*
G36*
X1648460Y-14759939D02*
G01*
X1648460Y-14551660D01*
X1856739Y-14551660D01*
X1856739Y-14759939D01*
G37*
G36*
X1902460Y-14759939D02*
G01*
X1902460Y-14551660D01*
X2110739Y-14551660D01*
X2110739Y-14759939D01*
G37*
G36*
X1648460Y-10949939D02*
G01*
X1648460Y-10741660D01*
X1856739Y-10741660D01*
X1856739Y-10949939D01*
G37*
G36*
X1902460Y-10949939D02*
G01*
X1902460Y-10741660D01*
X2110739Y-10741660D01*
X2110739Y-10949939D01*
G37*
G36*
X1648460Y-11203939D02*
G01*
X1648460Y-10995660D01*
X1856739Y-10995660D01*
X1856739Y-11203939D01*
G37*
G36*
X1902460Y-11203939D02*
G01*
X1902460Y-10995660D01*
X2110739Y-10995660D01*
X2110739Y-11203939D01*
G37*
G36*
X1648460Y-11457939D02*
G01*
X1648460Y-11249660D01*
X1856739Y-11249660D01*
X1856739Y-11457939D01*
G37*
G36*
X1902460Y-11457939D02*
G01*
X1902460Y-11249660D01*
X2110739Y-11249660D01*
X2110739Y-11457939D01*
G37*
G36*
X1648460Y-11711939D02*
G01*
X1648460Y-11503660D01*
X1856739Y-11503660D01*
X1856739Y-11711939D01*
G37*
G36*
X1902460Y-11711939D02*
G01*
X1902460Y-11503660D01*
X2110739Y-11503660D01*
X2110739Y-11711939D01*
G37*
G36*
X1648460Y-11965939D02*
G01*
X1648460Y-11757660D01*
X1856739Y-11757660D01*
X1856739Y-11965939D01*
G37*
G36*
X1902460Y-11965939D02*
G01*
X1902460Y-11757660D01*
X2110739Y-11757660D01*
X2110739Y-11965939D01*
G37*
G36*
X1648460Y-12219939D02*
G01*
X1648460Y-12011660D01*
X1856739Y-12011660D01*
X1856739Y-12219939D01*
G37*
G36*
X1902460Y-12219939D02*
G01*
X1902460Y-12011660D01*
X2110739Y-12011660D01*
X2110739Y-12219939D01*
G37*
G36*
X1648460Y-12473939D02*
G01*
X1648460Y-12265660D01*
X1856739Y-12265660D01*
X1856739Y-12473939D01*
G37*
G36*
X1902460Y-12473939D02*
G01*
X1902460Y-12265660D01*
X2110739Y-12265660D01*
X2110739Y-12473939D01*
G37*
G36*
X1648460Y-12727939D02*
G01*
X1648460Y-12519660D01*
X1856739Y-12519660D01*
X1856739Y-12727939D01*
G37*
G36*
X1902460Y-12727939D02*
G01*
X1902460Y-12519660D01*
X2110739Y-12519660D01*
X2110739Y-12727939D01*
G37*
G01*
X2006600Y-10591800D03*
G01*
X1752600Y-10591800D03*
G01*
X2006600Y-14909800D03*
G01*
X1752600Y-14909800D03*
G01*
X8102600Y-10083800D03*
G01*
X7848600Y-10083800D03*
G01*
X7594600Y-10083800D03*
G01*
X7340600Y-10083800D03*
G01*
X7086600Y-10083800D03*
G01*
X6832600Y-10083800D03*
G01*
X9271000Y-14909800D03*
G01*
X9525000Y-14909800D03*
G01*
X8610600Y-10083800D03*
G01*
X8356600Y-10083800D03*
D60*
G01*
X5041900Y-12877800D03*
G01*
X4787900Y-12877800D03*
G01*
X5041900Y-12623800D03*
G01*
X4787900Y-12623800D03*
G01*
X5041900Y-12369800D03*
G01*
X4787900Y-12369800D03*
D61*
G01*
X8737600Y-11493500D03*
G01*
X8737600Y-11239500D03*
G01*
X8737600Y-10985500D03*
G01*
X7264400Y-10985500D03*
G01*
X7264400Y-11493500D03*
D62*
G01*
X7975600Y-11808460D03*
G01*
X7975600Y-10670539D03*
D61*
G01*
X10845800Y-11493500D03*
G01*
X10845800Y-11239500D03*
G01*
X10845800Y-10985500D03*
G01*
X9372600Y-10985500D03*
G01*
X9372600Y-11493500D03*
D62*
G01*
X10083800Y-11808460D03*
G01*
X10083800Y-10670539D03*
M02*
