G04 Layer: TopLayer*
G04 EasyEDA v6.4.31, 2022-02-04 23:24:27*
G04 1551f2279af443638085206af3fd0dcc,e8ed4560e5824e1ea3c46bb2bbde2574,10*
G04 Gerber Generator version 0.2*
G04 Scale: 100 percent, Rotated: No, Reflected: No *
G04 Dimensions in millimeters *
G04 leading zeros omitted , absolute positions ,4 integer and 5 decimal *
%FSLAX45Y45*%
%MOMM*%

%ADD11C,0.4000*%
%ADD12C,0.2500*%
%ADD13C,0.6100*%
%ADD15R,1.3005X1.3995*%
%ADD16C,2.2860*%
%ADD18C,1.5000*%
%ADD19C,1.5240*%
%ADD20C,1.7501*%
%ADD21C,1.1999*%
%ADD22R,2.0000X2.0000*%
%ADD23C,2.0000*%
%ADD24C,1.8796*%
%ADD25R,1.8796X1.8796*%
%ADD26C,1.4148*%
%ADD27C,2.0320*%
%ADD28C,3.1496*%
%ADD29C,1.8000*%

%LPD*%
D11*
X5259324Y-12905739D02*
G01*
X5259324Y-12313412D01*
X5072379Y-12126213D01*
X5303265Y-10464800D02*
G01*
X5084318Y-10464800D01*
X7594600Y-10083800D02*
G01*
X7783829Y-10273029D01*
X8660638Y-10273029D01*
X1752600Y-14909800D02*
G01*
X2006600Y-14909800D01*
X8332215Y-9287510D02*
G01*
X7925308Y-8880855D01*
X1723897Y-8880855D01*
X1587500Y-9017000D01*
X5754877Y-10533634D02*
G01*
X7144765Y-10533634D01*
X7594600Y-10083800D01*
X2006600Y-10591800D02*
G01*
X2077212Y-10591800D01*
X2303271Y-10817860D01*
X2303271Y-10995913D01*
X2463545Y-11156187D01*
X2006600Y-10591800D02*
G01*
X1752600Y-10591800D01*
X3962400Y-12293600D02*
G01*
X4128008Y-12459208D01*
X4128008Y-12519660D01*
X2349500Y-9017000D02*
G01*
X2368042Y-9035542D01*
X6086347Y-9035542D01*
X10845800Y-11239500D02*
G01*
X10591800Y-11493500D01*
X9372600Y-11493500D01*
X10820400Y-8394700D02*
G01*
X10566400Y-8394700D01*
X9194800Y-8678163D02*
G01*
X9314941Y-8558021D01*
X9767061Y-8558021D01*
X9930384Y-8394700D01*
X10566400Y-8394700D01*
X7264400Y-11493500D02*
G01*
X8483600Y-11493500D01*
X8737600Y-11239500D01*
X10668000Y-14287500D02*
G01*
X9156700Y-14287500D01*
X7086600Y-10083800D02*
G01*
X7340600Y-10083800D01*
X9372600Y-11493500D02*
G01*
X8991600Y-11493500D01*
X8737600Y-11239500D01*
D12*
X5041900Y-12623800D02*
G01*
X4926584Y-12739115D01*
X3940809Y-12739115D01*
X3703574Y-12501626D01*
X2538984Y-12501626D01*
X2463545Y-12426187D01*
D11*
X5179313Y-13367512D02*
G01*
X6205220Y-13367512D01*
X6226556Y-13388847D01*
X4849368Y-13400786D02*
G01*
X4882641Y-13367512D01*
X5179313Y-13367512D01*
X2623565Y-12680187D02*
G01*
X2643377Y-12680187D01*
X2879597Y-12916154D01*
X2879597Y-12959334D01*
X3153156Y-13232892D01*
X3192272Y-13232892D01*
X3207004Y-13247624D01*
X4696459Y-13247624D01*
X4849368Y-13400786D01*
X5596127Y-9327642D02*
G01*
X5636006Y-9287510D01*
X6544309Y-9287510D01*
X6574027Y-13388847D02*
G01*
X6574027Y-13977874D01*
X6451600Y-14100047D01*
X7750556Y-13388847D02*
G01*
X7717536Y-13355828D01*
X6606793Y-13355828D01*
X6574027Y-13388847D01*
X6574027Y-13388847D02*
G01*
X6226556Y-13388847D01*
X4849368Y-13500100D02*
G01*
X4849368Y-13400786D01*
X9258300Y-13482574D02*
G01*
X9308845Y-13533120D01*
X9308845Y-13860526D01*
X9218929Y-13950442D01*
X8132572Y-13950442D01*
X7982204Y-14100555D01*
X9258300Y-13482574D02*
G01*
X9258300Y-13388847D01*
X9258300Y-13500100D02*
G01*
X9258300Y-13482574D01*
X9164827Y-11155679D02*
G01*
X10572750Y-11155679D01*
X10591800Y-11174476D01*
X10217911Y-13351763D02*
G01*
X10751311Y-13351763D01*
X9258300Y-13388847D02*
G01*
X9295384Y-13351763D01*
X10217911Y-13351763D01*
X10217911Y-13351763D02*
G01*
X10217911Y-13236194D01*
X2463545Y-12680187D02*
G01*
X2623565Y-12680187D01*
X10769600Y-12242800D02*
G01*
X10769600Y-12372847D01*
X10751311Y-13351763D02*
G01*
X10824209Y-13278866D01*
X10824209Y-12427458D01*
X10769600Y-12372847D01*
X10751311Y-13351763D02*
G01*
X10769600Y-13370052D01*
X10769600Y-13500100D02*
G01*
X10769600Y-13370052D01*
X7750556Y-13500100D02*
G01*
X7750556Y-13388847D01*
X6226556Y-13500100D02*
G01*
X6226556Y-13388847D01*
X4724400Y-13500100D02*
G01*
X4849368Y-13500100D01*
D12*
X4399788Y-14523212D02*
G01*
X3810761Y-13934186D01*
X3507486Y-13934186D01*
X2006600Y-11353800D02*
G01*
X2167128Y-11193271D01*
X2167128Y-10809731D01*
X2006600Y-14147800D02*
G01*
X2138426Y-14147800D01*
X2138426Y-14147800D02*
G01*
X2235962Y-14245589D01*
X3340100Y-14245589D01*
X3093974Y-12836652D02*
G01*
X3179318Y-12836652D01*
X3334004Y-12991084D01*
X5389372Y-12991084D01*
X5416550Y-12963905D01*
X5308600Y-10083800D02*
G01*
X5173472Y-9948671D01*
X4491736Y-9948671D01*
X4244086Y-10196576D01*
X7645400Y-13779500D02*
G01*
X7704074Y-13779500D01*
X7868158Y-13615416D01*
X7868158Y-13402563D01*
X7661656Y-13196062D01*
X6637527Y-13196062D01*
X5475224Y-12033758D01*
X4980177Y-12033758D01*
X9335770Y-12134087D02*
G01*
X9205213Y-12003786D01*
X6898640Y-12003786D01*
X5456681Y-10561828D01*
X5024627Y-10561828D01*
X4546600Y-10083800D01*
X3784600Y-10083800D02*
G01*
X3838447Y-10083800D01*
X6276847Y-12522200D01*
X10668000Y-12522200D01*
X10071100Y-12242800D02*
G01*
X10166858Y-12242800D01*
X10166858Y-12242800D02*
G01*
X10166858Y-12147042D01*
X10194797Y-12119102D01*
X10865611Y-12119102D01*
X10899902Y-12153392D01*
X10899902Y-13590778D01*
X10863325Y-13627100D01*
X10096754Y-13627100D01*
X9642602Y-14081252D01*
X8829547Y-14081252D01*
X8001000Y-14909800D01*
D11*
X3200400Y-11531600D02*
G01*
X3433063Y-11764263D01*
X5280152Y-11764263D01*
X6798818Y-12277597D02*
G01*
X6260845Y-12277597D01*
X5930645Y-11947144D01*
D12*
X5816600Y-10083800D02*
G01*
X5664708Y-10235692D01*
X5664708Y-10561320D01*
X6088888Y-10985500D01*
X7264400Y-10985500D01*
X1752600Y-11353800D02*
G01*
X1542287Y-11143487D01*
X1542287Y-10395458D01*
X2148331Y-9789160D01*
X9649459Y-9789160D01*
X10845800Y-10985500D01*
X2463545Y-11664187D02*
G01*
X3205988Y-11664187D01*
X3389122Y-11847321D01*
X5359908Y-11847321D01*
X6510020Y-12997434D01*
X7535672Y-12997434D01*
X8118347Y-13580110D01*
X8118347Y-13662913D01*
X6086093Y-9410445D02*
G01*
X10447274Y-9410445D01*
X11155934Y-10119105D01*
X3013456Y-13694918D02*
G01*
X2958591Y-13694918D01*
X2151379Y-12887452D01*
X2151379Y-12260579D01*
X2006600Y-12115800D01*
X2995422Y-13475207D02*
G01*
X3033522Y-13475207D01*
X3127247Y-13568934D01*
X3477513Y-13568934D01*
X3192525Y-11756644D02*
G01*
X3192525Y-12102084D01*
X3344925Y-12254484D01*
X2849879Y-12730734D02*
G01*
X2887725Y-12730734D01*
X3195574Y-13038581D01*
X3310381Y-13038581D01*
X3316731Y-13044931D01*
X5446775Y-13044931D01*
X5520943Y-12970763D01*
X2999740Y-12941808D02*
G01*
X2999740Y-12941808D01*
X3003804Y-12941808D01*
X3237229Y-13174979D01*
X6059931Y-13174979D01*
X6089141Y-13204444D01*
X7747000Y-14909800D02*
G01*
X7548625Y-15108174D01*
X4940300Y-15108174D01*
X4440427Y-14608302D01*
X4388358Y-14608302D01*
X3948175Y-14168120D01*
X3583177Y-14168120D01*
X3017520Y-13602462D01*
X2937509Y-13602462D01*
X2250186Y-12915137D01*
X2250186Y-11623547D01*
X2463545Y-11410187D01*
X7239000Y-14909800D02*
G01*
X7095490Y-15053310D01*
X5005070Y-15053310D01*
X4656836Y-14705076D01*
X4656836Y-14683739D01*
X4109974Y-14136878D01*
X4109974Y-14101318D01*
X3430524Y-13421868D01*
X3207511Y-13421868D01*
X3141472Y-13355828D01*
X2864865Y-13355828D01*
X2310892Y-12801854D01*
X2310892Y-12070842D01*
X2463545Y-11918187D01*
X7988554Y-13284200D02*
G01*
X7988554Y-12918694D01*
X8019288Y-12888213D01*
X7397495Y-12079731D02*
G01*
X6612890Y-12079731D01*
X6523990Y-11990831D01*
X10365993Y-12383770D02*
G01*
X6249415Y-12383770D01*
X4038600Y-10172954D01*
X4038600Y-10083800D01*
X5662168Y-12004039D02*
G01*
X4103370Y-10445242D01*
X1841500Y-10445242D01*
X8878570Y-10529315D02*
G01*
X8878570Y-10145776D01*
X8622791Y-9889744D01*
X2216150Y-9889744D01*
X1912112Y-10193781D01*
X4629404Y-14547595D02*
G01*
X3930141Y-13848334D01*
X3930141Y-13397229D01*
X3969004Y-13358368D01*
X4269231Y-13358368D01*
X3276600Y-14909800D02*
G01*
X3562858Y-14623542D01*
X4307077Y-14623542D01*
X6134100Y-13779500D02*
G01*
X6353809Y-13779500D01*
X6481572Y-13651737D01*
X5562600Y-10083800D02*
G01*
X5562600Y-10530331D01*
X6159245Y-11126978D01*
X8266429Y-11126978D01*
X8553704Y-10839450D01*
X9226550Y-10839450D01*
X9372600Y-10985500D01*
X1752600Y-11099800D02*
G01*
X1592579Y-10939779D01*
X1592579Y-10416286D01*
X2169160Y-9839452D01*
X8669527Y-9839452D01*
X9913111Y-11083036D01*
X10661395Y-11083036D01*
X10686288Y-11107674D01*
X4121658Y-13500100D02*
G01*
X4121658Y-13595857D01*
X4408170Y-13882370D01*
X4439411Y-13882370D01*
X5283961Y-14726920D01*
X5379720Y-14726920D01*
X5562600Y-14909800D01*
X4025900Y-13500100D02*
G01*
X4121658Y-13500100D01*
X4787900Y-12623800D02*
G01*
X4477258Y-12623800D01*
X4463288Y-12609829D01*
X2463545Y-12172187D02*
G01*
X2742691Y-12451334D01*
X3782568Y-12451334D01*
X3941063Y-12609829D01*
X4463288Y-12609829D01*
X5447791Y-9693655D02*
G01*
X6726681Y-9693655D01*
X5524500Y-13500100D02*
G01*
X5524500Y-14617700D01*
X5816600Y-14909800D01*
X9694925Y-9178289D02*
G01*
X10224515Y-8648700D01*
X10566400Y-8648700D01*
X9444736Y-9178289D02*
G01*
X9694925Y-9178289D01*
X8694674Y-9178289D02*
G01*
X8940800Y-8932163D01*
X9579102Y-8932163D01*
X9978897Y-8532113D01*
X10703813Y-8532113D01*
X10820400Y-8648700D01*
X8944863Y-9178289D02*
G01*
X8694674Y-9178289D01*
X8464041Y-13500100D02*
G01*
X7941309Y-14023086D01*
X7465568Y-14023086D01*
X6578600Y-14909800D01*
X8559800Y-13500100D02*
G01*
X8464041Y-13500100D01*
X7048500Y-13500100D02*
G01*
X7048500Y-13610336D01*
X7048500Y-13610336D02*
G01*
X7048500Y-14185900D01*
X6324600Y-14909800D01*
X10071100Y-13500100D02*
G01*
X9975341Y-13500100D01*
X9975341Y-13500100D02*
G01*
X9452609Y-14023086D01*
X8262874Y-14023086D01*
X7657084Y-14628621D01*
X7113777Y-14628621D01*
X6832600Y-14909800D01*
X10559541Y-12242800D02*
G01*
X10274300Y-12242800D01*
X10559541Y-13500100D02*
G01*
X10274300Y-13500100D01*
X9048241Y-13500100D02*
G01*
X8763000Y-13500100D01*
X7540497Y-13500100D02*
G01*
X7251700Y-13500100D01*
X6016497Y-13500100D02*
G01*
X5727700Y-13500100D01*
X4514341Y-13500100D02*
G01*
X4229100Y-13500100D01*
X3928872Y-11956287D02*
G01*
X3484118Y-12401042D01*
X3105404Y-12401042D01*
X3083813Y-12379452D01*
X3367786Y-13637005D02*
G01*
X3123438Y-13637005D01*
X3038347Y-13552170D01*
X2958338Y-13552170D01*
X2913125Y-13506957D01*
X2913125Y-13441934D01*
X2948686Y-13406374D01*
X3087370Y-13406374D01*
X3108706Y-13427455D01*
X2788920Y-12953745D02*
G01*
X2788920Y-12978384D01*
X3116072Y-13305536D01*
X3162300Y-13305536D01*
X3195065Y-13338302D01*
X3220465Y-13338302D01*
X3281934Y-13106908D02*
G01*
X5553202Y-13106908D01*
X5607304Y-13052805D01*
G36*
X10013099Y-12170300D02*
G01*
X10129100Y-12170300D01*
X10129100Y-12315299D01*
X10013099Y-12315299D01*
G37*
G36*
X10216299Y-12170300D02*
G01*
X10332300Y-12170300D01*
X10332300Y-12315299D01*
X10216299Y-12315299D01*
G37*
G36*
X10013099Y-13427600D02*
G01*
X10129100Y-13427600D01*
X10129100Y-13572599D01*
X10013099Y-13572599D01*
G37*
G36*
X10216299Y-13427600D02*
G01*
X10332300Y-13427600D01*
X10332300Y-13572599D01*
X10216299Y-13572599D01*
G37*
G36*
X8501799Y-13427600D02*
G01*
X8617800Y-13427600D01*
X8617800Y-13572599D01*
X8501799Y-13572599D01*
G37*
G36*
X8704999Y-13427600D02*
G01*
X8821000Y-13427600D01*
X8821000Y-13572599D01*
X8704999Y-13572599D01*
G37*
G36*
X6990499Y-13427600D02*
G01*
X7106500Y-13427600D01*
X7106500Y-13572599D01*
X6990499Y-13572599D01*
G37*
G36*
X7193699Y-13427600D02*
G01*
X7309700Y-13427600D01*
X7309700Y-13572599D01*
X7193699Y-13572599D01*
G37*
G36*
X5466499Y-13427600D02*
G01*
X5582500Y-13427600D01*
X5582500Y-13572599D01*
X5466499Y-13572599D01*
G37*
G36*
X5669699Y-13427600D02*
G01*
X5785700Y-13427600D01*
X5785700Y-13572599D01*
X5669699Y-13572599D01*
G37*
G36*
X3967899Y-13427600D02*
G01*
X4083900Y-13427600D01*
X4083900Y-13572599D01*
X3967899Y-13572599D01*
G37*
G36*
X4171099Y-13427600D02*
G01*
X4287100Y-13427600D01*
X4287100Y-13572599D01*
X4171099Y-13572599D01*
G37*
D15*
G01*
X10769600Y-12242800D03*
G01*
X10559541Y-12242800D03*
G01*
X10769600Y-13500100D03*
G01*
X10559541Y-13500100D03*
G01*
X9258300Y-13500100D03*
G01*
X9048241Y-13500100D03*
G01*
X7750429Y-13500100D03*
G01*
X7540370Y-13500100D03*
G01*
X6226429Y-13500100D03*
G01*
X6016370Y-13500100D03*
G01*
X4724400Y-13500100D03*
G01*
X4514341Y-13500100D03*
D16*
G01*
X4103370Y-9276079D03*
G01*
X4852670Y-9276079D03*
G01*
X3351529Y-9276079D03*
G01*
X3605529Y-9527539D03*
G01*
X4603750Y-9527539D03*
G01*
X3605529Y-8277860D03*
G01*
X4606290Y-8277860D03*
G36*
X1512498Y-8179998D02*
G01*
X1512498Y-8330001D01*
X1662501Y-8330001D01*
X1662501Y-8179998D01*
G37*
D18*
G01*
X1841500Y-8255000D03*
G01*
X2095500Y-8255000D03*
G01*
X2349500Y-8255000D03*
G01*
X1587500Y-9017000D03*
G01*
X1841500Y-9017000D03*
G01*
X2095500Y-9017000D03*
G01*
X2349500Y-9017000D03*
D19*
G01*
X10566400Y-8394700D03*
G01*
X10566400Y-8648700D03*
G01*
X10566400Y-8902700D03*
G01*
X10820400Y-8902700D03*
G01*
X10820400Y-8648700D03*
G01*
X10820400Y-8394700D03*
D20*
G01*
X9194800Y-8678037D03*
G01*
X8694674Y-9178162D03*
G01*
X8944863Y-9178162D03*
G01*
X9694925Y-9178162D03*
G01*
X9444736Y-9178162D03*
D21*
G01*
X3962400Y-11531600D03*
G01*
X3962400Y-12293600D03*
G01*
X3200400Y-12293600D03*
G01*
X3200400Y-11531600D03*
D22*
G01*
X2463545Y-12680187D03*
D23*
G01*
X2463545Y-12426187D03*
G01*
X2463545Y-12172187D03*
G01*
X2463545Y-11918187D03*
G01*
X2463545Y-11664187D03*
G01*
X2463545Y-11410187D03*
G01*
X2463545Y-11156187D03*
G01*
X2463545Y-10902187D03*
D24*
G01*
X3784600Y-10083800D03*
G01*
X3530600Y-10083800D03*
G01*
X3276600Y-10083800D03*
G01*
X3022600Y-10083800D03*
G01*
X2768600Y-10083800D03*
G01*
X2514600Y-10083800D03*
G01*
X2260600Y-10083800D03*
G01*
X4038600Y-10083800D03*
G01*
X4292600Y-14909800D03*
G01*
X4038600Y-14909800D03*
G01*
X3784600Y-14909800D03*
G01*
X3530600Y-14909800D03*
G01*
X3276600Y-14909800D03*
G01*
X3022600Y-14909800D03*
G01*
X2768600Y-14909800D03*
G01*
X4546600Y-14909800D03*
G01*
X6070600Y-10083800D03*
G01*
X5816600Y-10083800D03*
G01*
X5562600Y-10083800D03*
G01*
X5308600Y-10083800D03*
G01*
X5054600Y-10083800D03*
G01*
X4800600Y-10083800D03*
G01*
X4546600Y-10083800D03*
G01*
X6324600Y-10083800D03*
G01*
X6578600Y-14909800D03*
G01*
X6324600Y-14909800D03*
G01*
X6070600Y-14909800D03*
G01*
X5816600Y-14909800D03*
G01*
X5562600Y-14909800D03*
G01*
X5308600Y-14909800D03*
G01*
X5054600Y-14909800D03*
G01*
X6832600Y-14909800D03*
G01*
X8763000Y-14909800D03*
G01*
X8509000Y-14909800D03*
G01*
X8255000Y-14909800D03*
G01*
X8001000Y-14909800D03*
G01*
X7747000Y-14909800D03*
G01*
X7493000Y-14909800D03*
G01*
X7239000Y-14909800D03*
G01*
X9017000Y-14909800D03*
D25*
G01*
X1752600Y-12877800D03*
G01*
X2006600Y-12877800D03*
G01*
X1752600Y-13131800D03*
G01*
X2006600Y-13131800D03*
G01*
X1752600Y-13385800D03*
G01*
X2006600Y-13385800D03*
G01*
X1752600Y-13639800D03*
G01*
X2006600Y-13639800D03*
G01*
X1752600Y-13893800D03*
G01*
X2006600Y-13893800D03*
G01*
X1752600Y-14147800D03*
G01*
X2006600Y-14147800D03*
G01*
X1752600Y-14401800D03*
G01*
X2006600Y-14401800D03*
G01*
X1752600Y-14655800D03*
G01*
X2006600Y-14655800D03*
G01*
X1752600Y-10845800D03*
G01*
X2006600Y-10845800D03*
G01*
X1752600Y-11099800D03*
G01*
X2006600Y-11099800D03*
G01*
X1752600Y-11353800D03*
G01*
X2006600Y-11353800D03*
G01*
X1752600Y-11607800D03*
G01*
X2006600Y-11607800D03*
G01*
X1752600Y-11861800D03*
G01*
X2006600Y-11861800D03*
G01*
X1752600Y-12115800D03*
G01*
X2006600Y-12115800D03*
G01*
X1752600Y-12369800D03*
G01*
X2006600Y-12369800D03*
G01*
X1752600Y-12623800D03*
G01*
X2006600Y-12623800D03*
D24*
G01*
X2006600Y-10591800D03*
G01*
X1752600Y-10591800D03*
G01*
X2006600Y-14909800D03*
G01*
X1752600Y-14909800D03*
G01*
X8102600Y-10083800D03*
G01*
X7848600Y-10083800D03*
G01*
X7594600Y-10083800D03*
G01*
X7340600Y-10083800D03*
G01*
X7086600Y-10083800D03*
G01*
X6832600Y-10083800D03*
G01*
X9271000Y-14909800D03*
G01*
X9525000Y-14909800D03*
G01*
X8610600Y-10083800D03*
G01*
X8356600Y-10083800D03*
D26*
G01*
X5041900Y-12877800D03*
G01*
X4787900Y-12877800D03*
G01*
X5041900Y-12623800D03*
G01*
X4787900Y-12623800D03*
G01*
X5041900Y-12369800D03*
G01*
X4787900Y-12369800D03*
D27*
G01*
X8737600Y-11493500D03*
G01*
X8737600Y-11239500D03*
G01*
X8737600Y-10985500D03*
G01*
X7264400Y-10985500D03*
G01*
X7264400Y-11493500D03*
D28*
G01*
X7975600Y-11808460D03*
G01*
X7975600Y-10670539D03*
D27*
G01*
X10845800Y-11493500D03*
G01*
X10845800Y-11239500D03*
G01*
X10845800Y-10985500D03*
G01*
X9372600Y-10985500D03*
G01*
X9372600Y-11493500D03*
D28*
G01*
X10083800Y-11808460D03*
G01*
X10083800Y-10670539D03*
D13*
G01*
X5259324Y-12905739D03*
G01*
X5072379Y-12126213D03*
G01*
X5084318Y-10464800D03*
G01*
X5303265Y-10464800D03*
G01*
X8332215Y-9287510D03*
G01*
X8660638Y-10273029D03*
G01*
X5754877Y-10533634D03*
G01*
X4128008Y-12519660D03*
G01*
X6086347Y-9035542D03*
G01*
X5179313Y-13367512D03*
G01*
X6544309Y-9287510D03*
G01*
X5596127Y-9327642D03*
G01*
X6451600Y-14100047D03*
G01*
X7982204Y-14100555D03*
G01*
X10591800Y-11174476D03*
G01*
X9164827Y-11155679D03*
G01*
X10217911Y-13236194D03*
G01*
X3507486Y-13934186D03*
G01*
X4399788Y-14523212D03*
G01*
X2167128Y-10809731D03*
G01*
X3340100Y-14245589D03*
G01*
X3093974Y-12836652D03*
G01*
X5416550Y-12963905D03*
G01*
X4244086Y-10196576D03*
G01*
X4980177Y-12033758D03*
G01*
X9335770Y-12134087D03*
G01*
X5280152Y-11764263D03*
G01*
X5930645Y-11947144D03*
G01*
X6798818Y-12277597D03*
G01*
X8118347Y-13662913D03*
G01*
X6086093Y-9410445D03*
G01*
X11155934Y-10119105D03*
G01*
X3013456Y-13694918D03*
G01*
X3477513Y-13568934D03*
G01*
X2995422Y-13475207D03*
G01*
X3344925Y-12254484D03*
G01*
X3192525Y-11756644D03*
G01*
X5520943Y-12970763D03*
G01*
X2849879Y-12730734D03*
G01*
X6089141Y-13204444D03*
G01*
X2999740Y-12941808D03*
G01*
X8019288Y-12888213D03*
G01*
X7988554Y-13284200D03*
G01*
X7397495Y-12079731D03*
G01*
X6523990Y-11990831D03*
G01*
X10365993Y-12383770D03*
G01*
X1841500Y-10445242D03*
G01*
X5662168Y-12004039D03*
G01*
X1912112Y-10193781D03*
G01*
X8878570Y-10529315D03*
G01*
X4269231Y-13358368D03*
G01*
X4629404Y-14547595D03*
G01*
X4307077Y-14623542D03*
G01*
X6481572Y-13651737D03*
G01*
X10686288Y-11107674D03*
G01*
X6726681Y-9693655D03*
G01*
X5447791Y-9693655D03*
G01*
X4463288Y-12609829D03*
G01*
X3367786Y-13637005D03*
G01*
X3108706Y-13427455D03*
G01*
X3220465Y-13338302D03*
G01*
X2788920Y-12953745D03*
G01*
X3083813Y-12379452D03*
G01*
X3928872Y-11956287D03*
G01*
X3281934Y-13106908D03*
G01*
X5607304Y-13052805D03*
D29*
X4622800Y-13759500D02*
G01*
X4622800Y-13799499D01*
X4622800Y-14267500D02*
G01*
X4622800Y-14307499D01*
X6134100Y-13759500D02*
G01*
X6134100Y-13799499D01*
X6134100Y-14267500D02*
G01*
X6134100Y-14307499D01*
X7645400Y-13759500D02*
G01*
X7645400Y-13799499D01*
X7645400Y-14267500D02*
G01*
X7645400Y-14307499D01*
X9156700Y-13759500D02*
G01*
X9156700Y-13799499D01*
X9156700Y-14267500D02*
G01*
X9156700Y-14307499D01*
X10668000Y-13759500D02*
G01*
X10668000Y-13799499D01*
X10668000Y-14267500D02*
G01*
X10668000Y-14307499D01*
X10668000Y-12502200D02*
G01*
X10668000Y-12542199D01*
X10668000Y-13010200D02*
G01*
X10668000Y-13050199D01*
M02*
